<svg xmlns="http://www.w3.org/2000/svg" width="40" height="40" viewBox="0 0 40 40">
    <path fill="#FF571F" fill-rule="evenodd" d="M0 22.59v10.13c0 2.373 2.183 4.11 4.555 4.11h20.763c2.373 0 4.05-1.738 4.05-4.11v-.135l7.645 3.798a.767.767 0 0 0 .393.109c1.49 0 2.594-1.213 2.594-2.762V20.62c0-1.548-1.04-2.76-2.53-2.76a.769.769 0 0 0-.392.108l-7.567 3.819a4.287 4.287 0 0 0-4.007-3.489c2.11-1.552 3.495-4.045 3.495-6.86 0-4.698-3.818-8.521-8.517-8.521-3.838 0-7.088 2.553-8.15 6.048A6.428 6.428 0 0 0 7.76 7.06a6.457 6.457 0 0 0-6.45 6.45c0 1.958.754 3.712 2.137 4.896C1.547 18.85 0 20.555 0 22.59zm37.53-2.678c.304.093.445.41.445.708v13.11c0 .3-.14.617-.444.71l-8.164-4.124v-6.302l8.163-4.102zm-23.99-3.747c.526.741 1.168 1.424 1.899 1.93h-3.36c.6-.506 1.098-1.197 1.461-1.93zm.45-4.726a6.504 6.504 0 0 1 6.496-6.497 6.504 6.504 0 0 1 6.496 6.497 6.503 6.503 0 0 1-6.496 6.495c-3.047 0-5.602-2.11-6.3-4.943a6.39 6.39 0 0 0-.17-1.026 6.464 6.464 0 0 1-.026-.526zM7.762 9.085a4.43 4.43 0 0 1 4.245 3.188c.034.349.094.69.169 1.026.003.07.01.14.01.21a4.43 4.43 0 0 1-4.424 4.425 4.43 4.43 0 0 1-4.425-4.424 4.43 4.43 0 0 1 4.425-4.425zm19.58 23.443a2.277 2.277 0 0 1-2.277 2.276H4.302a2.277 2.277 0 0 1-2.277-2.276v-10.13a2.277 2.277 0 0 1 2.277-2.277h20.763a2.277 2.277 0 0 1 2.277 2.276v10.13z"/>
</svg>
