<svg xmlns="http://www.w3.org/2000/svg" width="40" height="40" viewBox="0 0 40 40">
    <path fill="#FF571F" fill-rule="evenodd" d="M37.898 6.362H22.805c-.305 0-.594-.11-.82-.305l-2.766-2.39a2.937 2.937 0 0 0-1.922-.711H7.375a2.107 2.107 0 0 0-2.102 2.101V7.87H2.102A2.096 2.096 0 0 0 0 9.964V35.15c0 1.156.945 2.102 2.102 2.102h30.523a2.107 2.107 0 0 0 2.102-2.102v-2.805h3.171A2.107 2.107 0 0 0 40 30.245V8.464a2.107 2.107 0 0 0-2.102-2.102zm-4.851 8.953v19.836a.42.42 0 0 1-.422.422H2.102a.42.42 0 0 1-.422-.422V9.971a.42.42 0 0 1 .422-.422h9.914c.304 0 .593.11.82.305l2.766 2.39c.53.462 1.218.712 1.921.712h15.094a.42.42 0 0 1 .422.422v1.937h.008zm5.273 14.93a.42.42 0 0 1-.422.422h-3.171v-17.29a2.107 2.107 0 0 0-2.102-2.101H17.531c-.304 0-.593-.11-.82-.305l-2.766-2.39a2.937 2.937 0 0 0-1.922-.711h-5.07V5.057a.42.42 0 0 1 .422-.422h9.922c.305 0 .594.11.82.305l2.766 2.39c.531.462 1.219.712 1.922.712h15.093a.42.42 0 0 1 .422.422v21.78z"/>
</svg>
