<svg xmlns="http://www.w3.org/2000/svg" width="40" height="40" viewBox="0 0 40 40">
    <path fill="#FF571F" fill-rule="evenodd" d="M19.975 15.416c.288 0 .575.123.78.329l5.873 5.872a1.106 1.106 0 0 1 0 1.57 1.096 1.096 0 0 1-1.56 0l-3.984-3.984V37.51c0 .616-.493 1.108-1.109 1.108a1.104 1.104 0 0 1-1.108-1.108V19.203l-3.984 3.983a1.082 1.082 0 0 1-.78.329c-.28 0-.567-.115-.78-.329a1.106 1.106 0 0 1 0-1.569l5.872-5.872c.205-.214.493-.329.78-.329zM21.076 1.7c2.891 0 5.667 1.075 7.803 3.03a11.53 11.53 0 0 1 3.606 6.612c4.304 1.134 7.45 5.232 7.458 9.84 0 2.546-.945 4.994-2.678 6.9-1.741 1.921-4.082 3.071-6.587 3.252H24.5a1.104 1.104 0 0 1-1.109-1.109c0-.616.493-1.109 1.109-1.109h6.053c3.96-.304 7.17-3.852 7.17-7.934 0-3.852-2.759-7.228-6.414-7.852a1.108 1.108 0 0 1-.92-.986 9.303 9.303 0 0 0-9.306-8.443 9.384 9.384 0 0 0-8.46 5.363 1.114 1.114 0 0 1-1.388.567 4.122 4.122 0 0 0-5.273 5.281c.18.51-.016 1.076-.485 1.347a6.583 6.583 0 0 0-3.26 5.668c0 3.597 2.825 6.792 6.184 6.998h7.031c.616 0 1.11.492 1.11 1.108 0 .616-.494 1.11-1.11 1.11h-7.13c-2.233-.124-4.328-1.184-5.913-2.974C.846 26.619 0 24.41 0 22.135a8.812 8.812 0 0 1 3.63-7.105 6.922 6.922 0 0 1-.131-1.314 6.341 6.341 0 0 1 7.548-6.218 11.519 11.519 0 0 1 3.754-3.95A11.534 11.534 0 0 1 21.076 1.7z"/>
</svg>
