<?xml version="1.0" encoding="UTF-8"?>
<svg width="111px" height="30px" viewBox="0 0 222 61" version="1.1" xmlns="http://www.w3.org/2000/svg" xmlns:xlink="http://www.w3.org/1999/xlink">
    <!-- Generator: Sketch 51.2 (57519) - http://www.bohemiancoding.com/sketch -->
    <title>logo-lockup-desktop</title>
    <desc>Created with Sketch.</desc>
    <defs></defs>
    <g id="Page-1" stroke="none" stroke-width="1" fill="none" fill-rule="evenodd">
        <g id="Organism/Header/desktop/home" transform="translate(-15.000000, -18.000000)" fill="#FFFFFF">
            <g id="Header/Black/Lime">
                <g id="logo-lockup-desktop" transform="translate(15.000000, 18.000000)">
                    <g id="Brand/ackama-wordmark-white" transform="translate(78.000000, 31.000000)">
                        <path d="M16.0331174,8.45222672 L22.1880729,8.45222672 L22.1880729,29.3927126 L16.0331174,29.3927126 L16.0331174,27.4251012 C14.5964453,29.1412955 12.545587,29.9757085 9.91982186,29.9757085 C7.21192713,29.9757085 4.91348988,28.9287449 2.98523077,26.7935223 C1.05697166,24.6582996 0.113076923,22.0202429 0.113076923,18.9218623 C0.113076923,15.8234818 1.05697166,13.2279352 2.98523077,11.0927126 C4.91348988,8.95748988 7.21192713,7.86923077 9.91982186,7.86923077 C12.545587,7.86923077 14.5976356,8.70607287 16.0331174,10.4198381 L16.0331174,8.45222672 Z M11.1529555,24.0279352 C12.5896275,24.0279352 13.7787206,23.5676113 14.6821457,22.645749 C15.5855709,21.7238866 16.0366883,20.4680162 16.0366883,18.9194332 C16.0366883,17.3708502 15.5855709,16.1137652 14.6821457,15.1931174 C13.7787206,14.2724696 12.5896275,13.8109312 11.1529555,13.8109312 C9.7162834,13.8109312 8.52361943,14.2724696 7.61781377,15.194332 C6.7120081,16.1161943 6.26684211,17.3684211 6.26684211,18.9206478 C6.26684211,20.4728745 6.71795951,21.7263158 7.62138462,22.6469636 C8.52480972,23.5676113 9.71390283,24.0279352 11.1493846,24.0279352 L11.1529555,24.0279352 Z"></path>
                        <path d="M27.3158138,26.7923077 C25.2637652,24.657085 24.2377409,22.0554656 24.2377409,18.9206478 C24.2377409,15.78583 25.2637652,13.1842105 27.3158138,11.0489879 C29.408332,8.91376518 31.9936275,7.86680162 35.11217,7.86680162 C39.0508178,7.86680162 42.5800081,10.0020243 44.385668,13.2267206 L39.0103482,16.4089069 C38.2723725,14.8591093 36.9582996,14.0635628 35.0300405,14.0635628 C32.3626154,14.0635628 30.3879352,16.0736842 30.3879352,18.9218623 C30.3879352,21.7700405 32.3578543,23.7801619 35.0300405,23.7801619 C36.9582996,23.7801619 38.3128421,22.9846154 39.0103482,21.4348178 L44.385668,24.5744939 C42.5800081,27.8817814 39.0924777,29.9757085 35.11217,29.9757085 C31.9936275,29.9744939 29.408332,28.9275304 27.3158138,26.7923077 Z"></path>
                        <path d="M80.262,8.45222672 L86.4145749,8.45222672 L86.4145749,29.3927126 L80.262,29.3927126 L80.262,27.4251012 C78.8253279,29.1412955 76.7744696,29.9757085 74.1475142,29.9757085 C71.4396194,29.9757085 69.1411822,28.9287449 67.2129231,26.7935223 C65.284664,24.6582996 64.3407692,22.0202429 64.3407692,18.9218623 C64.3407692,15.8234818 65.284664,13.2279352 67.2129231,11.0927126 C69.1411822,8.95748988 71.4396194,7.86923077 74.1475142,7.86923077 C76.7732794,7.86923077 78.8253279,8.70607287 80.262,10.4198381 L80.262,8.45222672 Z M75.3818381,24.0279352 C76.8185101,24.0279352 78.0076032,23.5676113 78.9110283,22.645749 C79.8144534,21.7238866 80.2655709,20.4680162 80.2655709,18.9194332 C80.2655709,17.3708502 79.8144534,16.1137652 78.9110283,15.1931174 C78.0076032,14.2724696 76.8185101,13.8109312 75.3818381,13.8109312 C73.945166,13.8109312 72.7560729,14.2712551 71.8526478,15.1931174 C70.9492227,16.1149798 70.4957247,17.3684211 70.4957247,18.9206478 C70.4957247,20.4728745 70.9468421,21.7263158 71.8502672,22.6469636 C72.7536923,23.5676113 73.9427854,24.0279352 75.3794575,24.0279352 L75.3818381,24.0279352 Z"></path>
                        <path d="M117.719028,10.2534413 C119.1557,11.8020243 119.853206,13.897166 119.853206,16.5340081 L119.853206,29.3927126 L113.698251,29.3927126 L113.698251,17.0781377 C113.698251,14.942915 112.672227,13.6445344 110.743968,13.6445344 C108.733579,13.6445344 107.543296,15.1105263 107.543296,17.5797571 L107.543296,29.3927126 L101.383579,29.3927126 L101.383579,17.0781377 C101.383579,14.942915 100.357555,13.6445344 98.4292955,13.6445344 C96.4189069,13.6445344 95.2286235,15.1105263 95.2286235,17.5797571 L95.2286235,29.3927126 L89.073668,29.3927126 L89.073668,8.45222672 L95.2286235,8.45222672 L95.2286235,10.3785425 C96.3367773,8.70364372 98.1829069,7.86680162 100.726543,7.86680162 C103.107109,7.86680162 104.911579,8.78744939 106.101862,10.6299595 C107.374275,8.78744939 109.343004,7.86680162 112.053279,7.86680162 C114.391789,7.86680162 116.280372,8.66234818 117.719028,10.2534413 Z"></path>
                        <path d="M137.819344,8.45222672 L143.9743,8.45222672 L143.9743,29.3927126 L137.819344,29.3927126 L137.819344,27.4251012 C136.382672,29.1412955 134.331814,29.9757085 131.704858,29.9757085 C128.996964,29.9757085 126.698526,28.9287449 124.770267,26.7935223 C122.842008,24.6582996 121.898113,22.0202429 121.898113,18.9218623 C121.898113,15.8234818 122.842008,13.2279352 124.770267,11.0927126 C126.698526,8.95748988 128.996964,7.86923077 131.704858,7.86923077 C134.330623,7.86923077 136.382672,8.70607287 137.819344,10.4198381 L137.819344,8.45222672 Z M132.939182,24.0279352 C134.375854,24.0279352 135.564947,23.5676113 136.468372,22.645749 C137.371798,21.7238866 137.822915,20.4680162 137.822915,18.9194332 C137.822915,17.3708502 137.371798,16.1137652 136.468372,15.1931174 C135.564947,14.2724696 134.375854,13.8109312 132.939182,13.8109312 C131.50251,13.8109312 130.313417,14.2712551 129.409992,15.1931174 C128.506567,16.1149798 128.055449,17.3708502 128.055449,18.9194332 C128.055449,20.4680162 128.506567,21.7251012 129.409992,22.645749 C130.313417,23.5663968 131.50013,24.0279352 132.936802,24.0279352 L132.939182,24.0279352 Z"></path>
                        <polygon points="52.3831822 0.0789473684 46.2282267 0.0789473684 46.2282267 29.3878543 52.3831822 29.3878543 52.3831822 20.1352227 52.3831822 17.6222672"></polygon>
                        <polygon points="66.0083563 8.45222672 58.6988259 8.45222672 52.7081296 18.9206478 58.6988259 29.3878543 66.0083563 29.3878543 59.0559109 18.9206478"></polygon>
                    </g>
                    <g id="Brand/logo/White" fill-rule="nonzero">
                        <path d="M59.7958506,29.980083 C59.7952247,17.9212115 52.5308536,7.05001198 41.3898739,2.43536633 C30.2488943,-2.17927931 17.4251481,0.371328449 8.89792531,8.89792531 L51.0622407,51.0622407 C56.6627163,45.4769276 59.8058713,37.889631 59.7958506,29.980083 Z"></path>
                        <path d="M0.164291466,0.164315353 L0.164291466,29.980083 C0.154294626,22.070535 3.29744963,14.4832384 8.89792531,8.89792531 L0.164291466,0.164315353 Z" opacity="0.3"></path>
                        <path d="M29.980083,59.7958745 L59.7958506,59.7958745 L51.0622407,51.0622407 C45.4769276,56.6627163 37.889631,59.8058713 29.980083,59.7958745 Z" opacity="0.3"></path>
                        <path d="M59.7958745,29.980083 L59.7958745,59.7958506 L51.0622407,51.0622407 C56.6627163,45.4769276 59.8058713,37.889631 59.7958745,29.980083 Z" opacity="0.7"></path>
                        <path d="M0.164315353,0.164291466 L29.980083,0.164291466 C22.070535,0.154294626 14.4832384,3.29744963 8.89792531,8.89792531 L0.164315353,0.164291466 Z" opacity="0.7"></path>
                        <path d="M8.89792531,8.89792531 C-2.57579637,20.5699587 -2.49551988,39.3090812 9.07778245,50.8823835 C20.6510848,62.4556859 39.3902072,62.5359623 51.0622407,51.0622407 L8.89792531,8.89792531 Z" opacity="0.5"></path>
                    </g>
                </g>
            </g>
        </g>
    </g>
</svg>
