<?xml version="1.0" encoding="UTF-8"?>
<svg width="30px" height="30px" viewBox="0 0 30 30" version="1.1" xmlns="http://www.w3.org/2000/svg" xmlns:xlink="http://www.w3.org/1999/xlink">
    <!-- Generator: Sketch 52.3 (67297) - http://www.bohemiancoding.com/sketch -->
    <title>ackama-logo-white</title>
    <desc>Created with Sketch.</desc>
    <g id="ackama-logo-white" stroke="none" stroke-width="1" fill="none" fill-rule="evenodd">
        <g id="ackama-logo-solid-REV" fill="#FFFFFF">
            <path d="M29.9302905,15.0062241 C29.9307908,8.96961837 26.2946528,3.52719365 20.7175844,1.21701697 C15.140516,-1.09315971 8.72097175,0.183922092 4.4526971,4.4526971 L25.559751,25.559751 C28.3627854,22.7635705 29.935697,18.9654662 29.9302905,15.0062241 Z" id="Path"></path>
            <path d="M0.0821447559,0.0821576763 L0.0821447559,15.0062241 C0.0769431093,11.0467754 1.65033421,7.24859495 4.45394191,4.4526971 L0.0821447559,0.0821576763 Z" id="Path" opacity="0.3"></path>
            <path d="M15.0062241,29.9303012 L29.9302905,29.9303012 L25.5585062,25.5585062 C22.7628347,28.3616911 18.9652141,29.9350359 15.0062241,29.9303012 Z" id="Path" opacity="0.3"></path>
            <path d="M29.9303012,15.0062241 L29.9303012,29.9302905 L25.5585062,25.5585062 C28.3616911,22.7628347 29.9350359,18.9652141 29.9303012,15.0062241 Z" id="Path" opacity="0.7"></path>
            <path d="M0.0821576763,0.0821447559 L15.0062241,0.0821447559 C11.0467754,0.0769431093 7.24859495,1.65033421 4.4526971,4.45394191 L0.0821576763,0.0821447559 Z" id="Path" opacity="0.7"></path>
            <path d="M4.4526971,4.4526971 C-1.37585491,10.2812491 -1.37585491,19.731199 4.4526971,25.559751 C10.2812491,31.388303 19.731199,31.388303 25.559751,25.559751 L4.4526971,4.4526971 Z" id="Path" opacity="0.5"></path>
        </g>
    </g>
</svg>