<?xml version="1.0" encoding="UTF-8"?>
<svg width="64px" height="64px" viewBox="0 0 64 64" version="1.1" xmlns="http://www.w3.org/2000/svg" xmlns:xlink="http://www.w3.org/1999/xlink">
    <!-- Generator: Sketch 60.1 (88133) - https://sketch.com -->
    <title>Group 6</title>
    <desc>Created with Sketch.</desc>
    <g id="Folders" stroke="none" stroke-width="1" fill="none" fill-rule="evenodd">
        <g id="Group-6">
            <rect id="Rectangle" fill="#D6E2EE" x="0" y="0" width="64" height="64"></rect>
            <path d="M37.3190816,38.2281143 L38.0281936,38.3596728 L38.6994398,38.4917202 C49.473918,40.6777446 51.0318221,44.3946975 51.4090181,63.9991882 L11.6866032,63.9991882 L11.7292987,62.2113055 L11.7785578,60.5630517 C12.3559606,43.2460357 14.5143578,40.2601675 25.7736478,38.2281143 L25.8700238,38.3382007 L26.0225413,38.4931937 C26.6310288,39.0798562 28.380435,40.4365132 31.5465143,40.4365132 C35.5859948,40.4365132 37.3190816,38.2281143 37.3190816,38.2281143 Z M31.5466639,11.6363636 C40.4265922,11.6363636 42.0487563,17.226711 42.0879229,24.1765069 L42.0886608,24.4410681 C42.0886608,31.5128519 37.3686026,37.2456229 31.5466639,37.2456229 C25.724426,37.2456229 21.0043678,31.5128519 21.0043678,24.4410681 L21.007366,23.9132526 C21.0865175,17.086079 22.7791397,11.6363636 31.5466639,11.6363636 Z" id="Shape" fill="#18435F"></path>
        </g>
    </g>
</svg>
