<svg width="64" height="64" viewBox="0 0 64 64" xmlns="http://www.w3.org/2000/svg"><g fill="none" fill-rule="evenodd"><path fill="#D6E2EE" d="M0 0h64v64H0z"/><path d="M37.32 38.228l.708.132.671.132c10.775 2.186 12.333 5.903 12.71 25.507H11.687l.042-1.788.05-1.648c.577-17.317 2.735-20.303 13.995-22.335l.096.11.153.155c.608.587 2.357 1.944 5.524 1.944 4.039 0 5.772-2.209 5.772-2.209zm-5.773-26.592c8.88 0 10.502 5.59 10.54 12.54l.002.265c0 7.072-4.72 12.805-10.542 12.805-5.823 0-10.543-5.733-10.543-12.805l.003-.528c.08-6.827 1.772-12.277 10.54-12.277z" fill="#18435F"/></g></svg>