<svg xmlns="http://www.w3.org/2000/svg" width="16" height="16" viewBox="0 0 16 16">
    <g fill="none" fill-rule="evenodd">
        <path fill="#354AE7" d="M12.322 0c1.006 0 1.885.365 2.6 1.079A3.568 3.568 0 0 1 16 3.678v8.644a3.567 3.567 0 0 1-1.079 2.6A3.567 3.567 0 0 1 12.322 16H3.678a3.567 3.567 0 0 1-2.6-1.079A3.567 3.567 0 0 1 0 12.322V3.678c0-1.006.365-1.885 1.079-2.6A3.567 3.567 0 0 1 3.678 0h8.644z"/>
        <path fill="#FFF" d="M5.505 8.117a.912.912 0 0 0-1.29.11.923.923 0 0 0 .11 1.297l2.668 2.26a.913.913 0 0 0 1.385-.248l3.501-6.16a.922.922 0 0 0-.34-1.255.913.913 0 0 0-1.25.343l-2.956 5.2-1.828-1.547z"/>
    </g>
</svg>
