<svg xmlns="http://www.w3.org/2000/svg" width="16" height="16"><path fill="#354AE7" fill-rule="evenodd" d="M12.322 0a3.57 3.57 0 012.6 1.079A3.568 3.568 0 0116 3.678v8.644a3.567 3.567 0 01-1.079 2.6A3.567 3.567 0 0112.322 16H3.678a3.567 3.567 0 01-2.6-1.079A3.567 3.567 0 010 12.322V3.678a3.57 3.57 0 011.079-2.6A3.567 3.567 0 013.678 0h8.644zm.028 2.667h-8.7a.923.923 0 00-.694.289.923.923 0 00-.29.694v8.7c0 .277.092.496.29.694.198.199.417.29.694.29h8.7a.921.921 0 00.694-.29.923.923 0 00.29-.693V3.65a.923.923 0 00-.29-.694.923.923 0 00-.694-.29z"/></svg>