<svg xmlns="http://www.w3.org/2000/svg" width="16" height="16" viewBox="0 0 16 16">
    <path fill="#6A7077" fill-rule="evenodd" d="M12.322 0c1.006 0 1.885.365 2.6 1.079A3.568 3.568 0 0 1 16 3.678v8.644a3.567 3.567 0 0 1-1.079 2.6A3.567 3.567 0 0 1 12.322 16H3.678a3.567 3.567 0 0 1-2.6-1.079A3.567 3.567 0 0 1 0 12.322V3.678c0-1.006.365-1.885 1.079-2.6A3.567 3.567 0 0 1 3.678 0h8.644zm.028 2.667h-8.7a.923.923 0 0 0-.694.289.923.923 0 0 0-.29.694v8.7c0 .277.092.496.29.694.198.199.417.29.694.29h8.7c.277 0 .496-.091.694-.29a.923.923 0 0 0 .29-.693V3.65a.923.923 0 0 0-.29-.694.923.923 0 0 0-.694-.29z"/>
</svg>
