<svg width="24" height="25" viewBox="0 0 24 25" fill="none" xmlns="http://www.w3.org/2000/svg">
<path fill-rule="evenodd" clip-rule="evenodd" d="M0 4.99156C0 2.20936 2.28835 0 5.03979 0H18.9602C21.7116 0 24 2.20936 24 4.99156V14.7579C24 17.5402 21.7116 19.7495 18.9602 19.7495H12.0876L7.606 24.1836V19.756H5.03979C2.28836 19.756 0 17.5466 0 14.7644V4.99156ZM5.03979 4C4.43832 4 4 4.47721 4 4.99156V14.7644C4 15.2788 4.43832 15.756 5.03979 15.756H8.77756C9.27281 15.756 9.74557 15.8853 10.1579 16.1147C10.5751 15.8796 11.0525 15.7495 11.5499 15.7495H18.9602C19.5617 15.7495 20 15.2723 20 14.7579V4.99156C20 4.47721 19.5617 4 18.9602 4H5.03979Z" fill="#556970"/>
</svg>
