<svg xmlns="http://www.w3.org/2000/svg" xmlns:xlink="http://www.w3.org/1999/xlink" aria-hidden="true" focusable="false" width="0.85em" height="1em" style="-ms-transform: rotate(360deg); -webkit-transform: rotate(360deg); transform: rotate(360deg);" preserveAspectRatio="xMidYMid meet" viewBox="0 0 864 1024"><path d="M65 65l735 447L64 959zm0-64Q48 1 34 9 1 28 1 65L0 959q0 37 33 56 7 4 15 6t16 2q9 0 17.5-2.5T97 1013l737-447q30-18 30-54 0-11-3.5-21.5t-10.5-19-16-13.5L98 11q-5-3-10.5-5t-11-3.5T65 1z" fill="#626262"/><rect x="0" y="0" width="864" height="1024" fill="rgba(0, 0, 0, 0)" /></svg>