<svg xmlns="http://www.w3.org/2000/svg" width="16" height="16" viewBox="0 0 16 16">
    <path fill="#354AE7" fill-rule="evenodd" d="M8.931 2.025a.536.536 0 0 1 .54.54v.56a.536.536 0 0 1-.54.54H2.778c-.316 0-.578.11-.803.335a1.086 1.086 0 0 0-.334.803v7.272c0 .316.109.578.334.803.225.225.487.335.803.335h7.272c.316 0 .578-.11.803-.335.225-.225.335-.487.335-.803V9.278c0-.15.053-.284.156-.384.1-.1.234-.153.384-.153h.56a.536.536 0 0 1 .54.54v2.797c0 .763-.275 1.422-.816 1.963-.54.54-1.2.815-1.962.815H2.778v-.003a2.686 2.686 0 0 1-1.962-.816A2.68 2.68 0 0 1 0 12.075V4.803c0-.762.275-1.422.816-1.962.54-.541 1.2-.816 1.962-.816h6.153zm6.485-1.006a.55.55 0 0 1 .403.169.548.548 0 0 1 .168.4v4.571a.548.548 0 0 1-.168.4.56.56 0 0 1-.803 0l-1.572-1.568-5.816 5.815a.273.273 0 0 1-.206.09.285.285 0 0 1-.206-.09L6.2 9.791a.285.285 0 0 1-.09-.207c0-.078.03-.146.09-.206l5.819-5.822-1.569-1.569a.548.548 0 0 1-.169-.4c0-.153.056-.287.169-.4a.548.548 0 0 1 .4-.168z"/>
</svg>
