<svg xmlns="http://www.w3.org/2000/svg" xmlns:xlink="http://www.w3.org/1999/xlink" aria-hidden="true" focusable="false" width="1.15em" height="1em" style="-ms-transform: rotate(360deg); -webkit-transform: rotate(360deg); transform: rotate(360deg);" preserveAspectRatio="xMidYMid meet" viewBox="0 0 1024 896"><path d="M960 144H480l-96-96H64q-26 0-45 18.5T0 112v672q0 27 19 45.5T64 848h896q27 0 45.5-18.5T1024 784V208q0-10-3-20t-9-18-14-14-17.5-9-20.5-3zM64 112h291l79 77 20 19h506v64H64V112zm0 672V336h896v448H64z" fill="#626262"/><rect x="0" y="0" width="1024" height="896" fill="rgba(0, 0, 0, 0)" /></svg>