<svg xmlns="http://www.w3.org/2000/svg" width="20" height="20" viewBox="0 0 20 20">
    <path fill="#6A7077" fill-rule="evenodd" d="M5.688 3.928c.488 0 .949.183 1.304.516l1.402 1.317a.44.44 0 0 0 .296.115h6.938c.757 0 1.374.61 1.366 1.364v10.77a1.37 1.37 0 0 1-1.37 1.365H1.37A1.37 1.37 0 0 1 0 18.011V5.297c0-.754.617-1.369 1.374-1.369zM8.69.625c.488 0 .949.182 1.304.516l1.402 1.316a.44.44 0 0 0 .296.115h6.938c.757 0 1.374.615 1.37 1.364v10.767a1.37 1.37 0 0 1-1.37 1.365h-.461V6.046a1.37 1.37 0 0 0-1.37-1.364H9.857a.448.448 0 0 1-.296-.115L8.159 3.25a1.888 1.888 0 0 0-1.304-.515H3.006v-.746c0-.75.613-1.364 1.37-1.364z"/>
</svg>
