<svg xmlns="http://www.w3.org/2000/svg" width="20" height="20" viewBox="0 0 20 20">
    <path fill="#038500" fill-rule="evenodd" d="M8.684.625c.504 0 .976.2 1.332.564l1.401 1.428a.383.383 0 0 0 .274.122h6.938c.758 0 1.375.634 1.371 1.409v10.53c0 .775-.613 1.409-1.37 1.409H17v1.879c0 .775-.613 1.409-1.37 1.409H1.37c-.754 0-1.371-.63-1.371-1.41V5.323c0-.775.613-1.409 1.37-1.409h1.633V2.034c0-.775.613-1.409 1.37-1.409zM5.677 5.401H1.812a.332.332 0 0 0-.332.332v11.822c0 .184.148.333.332.333h13.37a.33.33 0 0 0 .332-.333V7.847a.332.332 0 0 0-.332-.333H8.684c-.504 0-.976-.2-1.331-.563L5.95 5.52a.383.383 0 0 0-.274-.12zm5.647 4.908c.34.266.398.76.132 1.1l-2.8 3.582a.79.79 0 0 1-.538.297c-.024.004-.05.004-.074.004a.783.783 0 0 1-.508-.188l-2.073-1.777a.783.783 0 0 1-.086-1.104.779.779 0 0 1 1.1-.086l1.453 1.245 2.296-2.94a.78.78 0 0 1 1.098-.133zm-2.64-8.197H4.818a.332.332 0 0 0-.331.333v1.468H5.68c.504 0 .977.2 1.332.564l1.402 1.429a.383.383 0 0 0 .273.12h6.943c.753 0 1.37.631 1.37 1.41V14.6h1.187a.332.332 0 0 0 .332-.332V4.559a.332.332 0 0 0-.332-.333h-6.497c-.504 0-.976-.2-1.332-.563l-1.402-1.43a.383.383 0 0 0-.273-.12z"/>
</svg>
