<svg xmlns="http://www.w3.org/2000/svg" width="24" height="24" viewBox="0 0 24 24"><path fill="#646970" fill-rule="evenodd" d="M23.639 6.13a12.214 12.214 0 00-4.465-4.464C17.294.569 15.243.02 13.017.02S8.739.57 6.86 1.666A12.212 12.212 0 002.395 6.13C1.298 8.01.75 10.062.75 12.287c0 2.673.78 5.077 2.34 7.212 1.56 2.135 3.575 3.612 6.045 4.432.288.053.5.016.64-.112a.625.625 0 00.207-.479l-.008-.862c-.006-.544-.008-1.017-.008-1.422l-.368.064c-.234.043-.53.061-.886.056a6.754 6.754 0 01-1.11-.112 2.48 2.48 0 01-1.07-.479 2.027 2.027 0 01-.703-.982l-.16-.368a3.991 3.991 0 00-.503-.814c-.229-.298-.46-.5-.695-.607l-.111-.08a1.173 1.173 0 01-.208-.192.876.876 0 01-.144-.223c-.032-.075-.005-.136.08-.184.085-.048.24-.072.463-.072l.32.048c.213.043.476.17.79.383.314.213.573.49.775.83.245.437.54.77.886.999.346.229.695.343 1.047.343.35 0 .654-.026.91-.08.255-.053.495-.133.719-.24.096-.713.356-1.261.782-1.644a10.937 10.937 0 01-1.637-.288 6.519 6.519 0 01-1.501-.623 4.3 4.3 0 01-1.286-1.07c-.34-.426-.62-.985-.838-1.677-.219-.693-.328-1.491-.328-2.396 0-1.289.42-2.385 1.262-3.29-.394-.97-.357-2.056.112-3.259.309-.096.767-.024 1.373.216.607.24 1.052.445 1.334.615.282.17.509.314.68.431.99-.277 2.012-.415 3.066-.415 1.054 0 2.076.138 3.067.415l.607-.383a8.57 8.57 0 011.469-.703c.564-.213.996-.272 1.294-.176.48 1.204.522 2.29.128 3.259.84.905 1.262 2.002 1.262 3.29 0 .905-.11 1.706-.328 2.404-.218.697-.5 1.256-.846 1.677-.346.42-.778.775-1.294 1.062a6.531 6.531 0 01-1.501.623c-.485.128-1.03.224-1.638.288.554.479.83 1.235.83 2.268v3.37c0 .191.067.351.2.479.134.127.344.165.631.111 2.471-.82 4.486-2.297 6.046-4.432 1.56-2.135 2.34-4.538 2.34-7.211 0-2.225-.55-4.278-1.645-6.157z"/></svg>