<svg xmlns="http://www.w3.org/2000/svg" width="48" height="36"><path fill="#FFF" fill-rule="evenodd" d="M11.6 3.8V15H9.472L3.888 8.2V15h-2.56V3.8h2.144l5.568 6.8V3.8h2.56zm11.728 9.088V15h-9.792v-1.68l6.144-7.408h-6.016V3.8h9.424v1.68l-6.128 7.408h6.368zm5.344 2.304c-.885 0-1.741-.12-2.568-.36s-1.49-.552-1.992-.936l.88-1.952c.48.352 1.05.635 1.712.848a6.43 6.43 0 001.984.32c.736 0 1.28-.11 1.632-.328.352-.219.528-.51.528-.872a.834.834 0 00-.312-.664 2.365 2.365 0 00-.8-.424 15.924 15.924 0 00-1.32-.352c-.853-.203-1.552-.405-2.096-.608a3.405 3.405 0 01-1.4-.976c-.39-.448-.584-1.045-.584-1.792 0-.65.176-1.24.528-1.768.352-.528.883-.947 1.592-1.256.71-.31 1.576-.464 2.6-.464a8.61 8.61 0 012.096.256 6.17 6.17 0 011.792.736l-.8 1.968c-1.035-.587-2.07-.88-3.104-.88-.725 0-1.261.117-1.608.352-.347.235-.52.544-.52.928s.2.67.6.856c.4.187 1.01.37 1.832.552.853.203 1.552.405 2.096.608a3.47 3.47 0 011.4.96c.39.437.584 1.03.584 1.776a3.06 3.06 0 01-.536 1.752c-.357.528-.893.947-1.608 1.256-.715.31-1.584.464-2.608.464zM35.2 3.8h2.592v9.088h5.616V15H35.2V3.8zM4.256 33.096a7.009 7.009 0 01-2.36-.4c-.752-.267-1.32-.608-1.704-1.024l.576-.928c.373.405.89.73 1.552.976a5.843 5.843 0 002.048.368c.992 0 1.79-.195 2.392-.584.603-.39.904-.93.904-1.624 0-.373-.112-.677-.336-.912a2.493 2.493 0 00-.848-.568 13.26 13.26 0 00-1.392-.472 14.966 14.966 0 01-1.688-.584 2.913 2.913 0 01-1.104-.832c-.304-.368-.456-.845-.456-1.432 0-.693.19-1.293.568-1.8.379-.507.907-.896 1.584-1.168.677-.272 1.453-.408 2.328-.408a7.3 7.3 0 011.92.248c.608.165 1.125.403 1.552.712l-.496.96a4.455 4.455 0 00-1.392-.68 5.778 5.778 0 00-1.648-.232c-.981 0-1.77.203-2.368.608-.597.405-.896.955-.896 1.648 0 .384.117.699.352.944s.525.44.872.584c.347.144.813.301 1.4.472.693.203 1.253.397 1.68.584a3 3 0 011.088.8c.299.347.448.803.448 1.368 0 .704-.195 1.31-.584 1.816-.39.507-.928.893-1.616 1.16-.688.267-1.48.4-2.376.4zm12.112-8.576c.95 0 1.688.243 2.216.728.528.485.792 1.155.792 2.008 0 .299-.032.619-.096.96L18.32 33h-1.136l.96-4.8a4.47 4.47 0 00.08-.768c0-.608-.184-1.075-.552-1.4-.368-.325-.91-.488-1.624-.488-.907 0-1.653.248-2.24.744-.587.496-.981 1.23-1.184 2.2L11.728 33h-1.136l2.368-11.872h1.136l-.944 4.72c.779-.885 1.85-1.328 3.216-1.328zm14.448.064L29.136 33h-1.088l.272-1.328a4.225 4.225 0 01-1.44 1.04 4.5 4.5 0 01-1.84.368c-.715 0-1.35-.144-1.904-.432a3.123 3.123 0 01-1.296-1.24c-.31-.539-.464-1.17-.464-1.896 0-.95.205-1.803.616-2.56a4.57 4.57 0 011.704-1.784c.725-.432 1.536-.648 2.432-.648.8 0 1.472.157 2.016.472a2.74 2.74 0 011.184 1.352l.352-1.76h1.136zm-5.536 7.488c.693 0 1.317-.168 1.872-.504.555-.336.99-.805 1.304-1.408.315-.603.472-1.277.472-2.024 0-.821-.243-1.464-.728-1.928-.485-.464-1.165-.696-2.04-.696a3.5 3.5 0 00-1.872.512 3.56 3.56 0 00-1.304 1.416c-.315.603-.472 1.277-.472 2.024 0 .821.243 1.461.728 1.92.485.459 1.165.688 2.04.688zm9.488-5.952a3.442 3.442 0 011.408-1.208c.565-.261 1.248-.392 2.048-.392l-.208 1.104-.32-.016c-.907 0-1.65.261-2.232.784-.581.523-.973 1.301-1.176 2.336L33.44 33h-1.136l1.664-8.416h1.088l-.288 1.536zm4.8 2.992a2.72 2.72 0 00-.016.336c0 .853.243 1.504.728 1.952.485.448 1.208.672 2.168.672.555 0 1.075-.093 1.56-.28a3.148 3.148 0 001.192-.776l.512.816a4.034 4.034 0 01-1.48.92 5.382 5.382 0 01-1.88.328c-1.216 0-2.173-.32-2.872-.96-.699-.64-1.048-1.515-1.048-2.624 0-.939.2-1.787.6-2.544a4.51 4.51 0 011.664-1.784c.71-.432 1.507-.648 2.392-.648 1.12 0 2.01.317 2.672.952.661.635.992 1.507.992 2.616 0 .31-.037.65-.112 1.024h-7.072zm3.488-3.632c-.843 0-1.563.25-2.16.752-.597.501-1.003 1.179-1.216 2.032h6a2.26 2.26 0 00.016-.304c0-.79-.24-1.4-.72-1.832-.48-.432-1.12-.648-1.92-.648z"/></svg>