<svg xmlns="http://www.w3.org/2000/svg" width="140" height="28"><path fill="#FFF" fill-rule="evenodd" d="M16.917 5.833v16.334h-3.104L5.67 12.25v9.917H1.937V5.833h3.126l8.12 9.917V5.833h3.734zM34.02 19.087v3.08H19.74v-2.45L28.7 8.913h-8.773v-3.08H33.67v2.45l-8.937 10.804h9.287zm7.793 3.36c-1.29 0-2.54-.175-3.745-.525-1.205-.35-2.174-.805-2.905-1.365l1.284-2.847c.7.513 1.532.926 2.496 1.237a9.378 9.378 0 002.894.466c1.073 0 1.866-.16 2.38-.478.513-.319.77-.743.77-1.272 0-.389-.152-.711-.455-.968-.304-.257-.693-.463-1.167-.618a23.222 23.222 0 00-1.925-.514c-1.244-.295-2.263-.59-3.057-.886a4.966 4.966 0 01-2.041-1.424c-.568-.653-.852-1.524-.852-2.613 0-.949.257-1.808.77-2.578.513-.77 1.287-1.38 2.322-1.832 1.034-.451 2.298-.677 3.791-.677 1.043 0 2.061.125 3.057.374s1.867.606 2.613 1.073l-1.166 2.87c-1.51-.856-3.018-1.283-4.527-1.283-1.058 0-1.84.17-2.345.513-.506.342-.758.793-.758 1.353 0 .56.291.976.875 1.249.583.272 1.474.54 2.671.805 1.245.295 2.264.59 3.057.886a5.062 5.062 0 012.042 1.4c.567.638.851 1.501.851 2.59a4.46 4.46 0 01-.781 2.555c-.521.77-1.303 1.38-2.345 1.832-1.043.451-2.31.677-3.804.677zm9.52-16.614h3.78v13.254h8.19v3.08h-11.97V5.833zM76.3 22.307a10.22 10.22 0 01-3.442-.584c-1.096-.389-1.925-.886-2.485-1.493l.84-1.353c.545.59 1.3 1.065 2.264 1.423a8.52 8.52 0 002.986.537c1.447 0 2.61-.284 3.489-.852.879-.568 1.318-1.357 1.318-2.368 0-.545-.163-.988-.49-1.33a3.635 3.635 0 00-1.237-.829c-.497-.21-1.174-.44-2.03-.688-1.01-.296-1.831-.58-2.461-.852a4.248 4.248 0 01-1.61-1.213c-.444-.537-.665-1.233-.665-2.088 0-1.011.276-1.886.828-2.625.552-.74 1.322-1.307 2.31-1.704.988-.396 2.12-.595 3.395-.595.98 0 1.913.12 2.8.362.887.241 1.641.587 2.263 1.038l-.723 1.4a6.497 6.497 0 00-2.03-.991 8.426 8.426 0 00-2.403-.339c-1.431 0-2.583.296-3.454.887-.87.591-1.306 1.392-1.306 2.403 0 .56.17 1.02.513 1.377.342.358.766.642 1.272.852.505.21 1.186.44 2.041.688 1.011.296 1.828.58 2.45.852a4.386 4.386 0 011.587 1.166c.436.506.653 1.17.653 1.995 0 1.027-.284 1.91-.851 2.649-.568.739-1.354 1.302-2.357 1.691-1.003.39-2.158.584-3.465.584zM93.963 9.8c1.385 0 2.462.354 3.232 1.062.77.707 1.155 1.684 1.155 2.928 0 .436-.047.902-.14 1.4l-1.4 6.977h-1.657l1.4-7c.078-.436.117-.81.117-1.12 0-.887-.268-1.568-.805-2.042-.537-.474-1.326-.712-2.368-.712-1.323 0-2.411.362-3.267 1.085-.856.724-1.431 1.793-1.727 3.209l-1.306 6.58H85.54l3.453-17.314h1.657l-1.377 6.884c1.136-1.291 2.7-1.937 4.69-1.937zm21.024.093l-2.45 12.274h-1.587l.397-1.937a6.162 6.162 0 01-2.1 1.517c-.81.357-1.704.536-2.684.536-1.042 0-1.967-.21-2.776-.63a4.555 4.555 0 01-1.89-1.808c-.451-.786-.677-1.707-.677-2.765 0-1.384.3-2.629.898-3.733a6.665 6.665 0 012.485-2.602c1.058-.63 2.24-.945 3.547-.945 1.167 0 2.147.23 2.94.688a3.998 3.998 0 011.727 1.972l.513-2.567h1.657zm-8.074 10.92c1.011 0 1.921-.245 2.73-.735.81-.49 1.443-1.174 1.902-2.053.459-.879.688-1.863.688-2.952 0-1.197-.354-2.135-1.061-2.811-.708-.677-1.7-1.015-2.975-1.015-1.011 0-1.921.249-2.73.746a5.19 5.19 0 00-1.902 2.065c-.459.88-.688 1.863-.688 2.952 0 1.198.354 2.131 1.061 2.8.708.669 1.7 1.003 2.975 1.003zm13.837-8.68c.544-.793 1.229-1.38 2.053-1.761.825-.381 1.82-.572 2.987-.572l-.303 1.61-.467-.023c-1.322 0-2.407.38-3.255 1.143-.848.762-1.42 1.898-1.715 3.407l-1.237 6.23h-1.656l2.426-12.274h1.587l-.42 2.24zm7.303 4.364a3.77 3.77 0 00-.023.49c0 1.244.354 2.193 1.062 2.846.707.654 1.761.98 3.161.98a6.28 6.28 0 002.275-.408c.708-.272 1.288-.65 1.739-1.132l.746 1.19c-.575.576-1.295 1.023-2.158 1.342a7.849 7.849 0 01-2.742.478c-1.773 0-3.17-.466-4.188-1.4-1.019-.933-1.528-2.209-1.528-3.826 0-1.37.291-2.606.875-3.71a6.578 6.578 0 012.426-2.602c1.035-.63 2.198-.945 3.489-.945 1.633 0 2.932.463 3.896 1.388.965.926 1.447 2.198 1.447 3.815 0 .451-.054.95-.163 1.494h-10.314zm5.087-5.297c-1.229 0-2.279.366-3.15 1.097-.871.73-1.462 1.719-1.773 2.963h8.75c.015-.109.023-.257.023-.443 0-1.151-.35-2.042-1.05-2.672-.7-.63-1.633-.945-2.8-.945z"/></svg>