<svg xmlns="http://www.w3.org/2000/svg" width="20" height="20" viewBox="0 0 20 20"><path fill="#646970" fill-rule="evenodd" d="M9.763.746c.271-.606 1.134-.911 1.894-.655.692.235 1.01.874.758 1.436L10.07 5.513s-.247.849.557.697c.804-.153 1.315-.89 4.66.559.42.19.765.35 1.049.483.78.367 1.028 1.177.517 1.789-.466.558-1.421.711-2.16.386-1.012-.446-3.146-1.727-3.777.111-.334.977-.514 3.125 1.03 3.735 1.543.61 1.829.762 2.6-.483.41-.66.437-1.806.875-2.408.358-.492 1.122-.724 1.784-.507.738.242.962.876.747 1.484-.53 1.502-1.465 3.55-2.797 4.573-1.403 1.077-2.567 1.158-2.897 2.77-.15.733-.889 1.298-1.829 1.298H5.873c-1.016 0-1.84-.65-1.84-1.453v-1.87c0-.558-.642-3.048-.642-3.048-.74-2.287-1.576-5.285-1.062-6.401l3.19-5.872C5.789.75 6.653.444 7.412.7c.693.234 1.01.874.758 1.436L5.463 6.932s-.175.65.275.751c.45.102.618-.58.836-1.065zM3.045 2.344c.467 0 .87.217 1.057.53l-2.11 3.452-.117-3.058c0-.51.524-.924 1.17-.924z"/></svg>