<svg xmlns="http://www.w3.org/2000/svg" width="16" height="16"><path fill="#646970" fill-rule="evenodd" d="M1.65 1L14.5 13.909l-.924.924-2.114-2.126-.308-.31a8.47 8.47 0 01-3.179.616c-3.625 0-6.72-2.264-7.975-5.46A8.62 8.62 0 012.708 3.92l-.33-.332-1.653-1.66L1.649 1zm3.084 4.95a3.621 3.621 0 00-.384 1.603c0 2.01 1.624 3.64 3.625 3.64.573 0 1.11-.146 1.591-.386l-1.12-1.125a2.226 2.226 0 01-.471.055 2.181 2.181 0 01-2.12-2.661zM7.88 2.168a8.55 8.55 0 017.953 5.408A8.565 8.565 0 0113.351 11l-2.114-2.11c.163-.407.256-.85.256-1.315A3.61 3.61 0 007.88 3.969c-.466 0-.91.098-1.319.256L5 2.671a8.47 8.47 0 012.88-.504zM7.955 5.5c1.22 0 2.212.992 2.212 2.212l-.011.121-2.323-2.322z"/></svg>