<svg xmlns="http://www.w3.org/2000/svg" width="20" height="18" fill="none"><path fill="#fff" fill-rule="evenodd" d="M6.667 4.167h-2.5v2.5H2.5v-2.5H0V2.5h2.5V0h1.667v2.5h2.5v1.667Zm8.191 0H17.5c.917 0 1.667.75 1.667 1.666v10c0 .917-.75 1.667-1.667 1.667H4.167c-.917 0-1.667-.75-1.667-1.667v-7.5h1.667v7.5H17.5v-10h-3.375L12.6 4.167H8.333V2.5h5l1.525 1.667ZM10.833 15a4.168 4.168 0 0 1-4.166-4.167c0-2.3 1.866-4.166 4.166-4.166 2.3 0 4.167 1.866 4.167 4.166 0 2.3-1.867 4.167-4.167 4.167Zm0-6.667c1.375 0 2.5 1.125 2.5 2.5s-1.125 2.5-2.5 2.5a2.507 2.507 0 0 1-2.5-2.5c0-1.375 1.125-2.5 2.5-2.5Z" clip-rule="evenodd"/></svg>