<svg xmlns="http://www.w3.org/2000/svg" width="24" height="24" viewBox="0 0 24 24">
    <path fill="#E2F0E1" fill-rule="evenodd" d="M22.367 5.97a11.937 11.937 0 0 0-4.362-4.362C16.168.536 14.163 0 11.988 0 9.813 0 7.807.536 5.97 1.608A11.934 11.934 0 0 0 1.608 5.97C.536 7.807 0 9.813 0 11.987c0 2.175.536 4.18 1.608 6.017a11.937 11.937 0 0 0 4.362 4.363c1.837 1.072 3.843 1.608 6.017 1.608 2.175 0 4.181-.536 6.018-1.608a11.934 11.934 0 0 0 4.362-4.363c1.072-1.836 1.607-3.842 1.607-6.017 0-2.175-.535-4.18-1.607-6.017zm-4.73 8.842a.96.96 0 0 1 .297.703c0 .28-.099.52-.296.718l-1.405 1.405a.978.978 0 0 1-.718.296.96.96 0 0 1-.702-.296l-2.826-2.826-2.825 2.826a.96.96 0 0 1-.702.296.978.978 0 0 1-.718-.296l-1.405-1.405a.977.977 0 0 1-.297-.718.96.96 0 0 1 .297-.703l2.825-2.825-2.825-2.825a.96.96 0 0 1-.297-.702c0-.281.1-.52.297-.718l1.405-1.405a.978.978 0 0 1 .718-.297.96.96 0 0 1 .702.297l2.825 2.825 2.826-2.825a.96.96 0 0 1 .702-.297c.28 0 .52.1.718.297l1.405 1.405a.978.978 0 0 1 .296.718.96.96 0 0 1-.296.702l-2.825 2.825 2.825 2.825z"/>
</svg>
