<svg xmlns="http://www.w3.org/2000/svg" width="16" height="16" viewBox="0 0 16 16">
    <path fill="#646970" fill-rule="evenodd" d="M5.211 1.904c.083 0 .155.03.216.091.06.061.091.133.091.216 0 .173-.083.275-.25.307a6.408 6.408 0 0 0-1.276.576.444.444 0 0 1-.153.039H2.764c-.423 0-.784.15-1.085.45-.3.301-.45.663-.45 1.085v7.985c0 .422.15.783.45 1.084.301.3.662.451 1.085.451h7.984c.423 0 .784-.15 1.085-.45.3-.302.45-.663.45-1.085v-2.054c0-.122.058-.215.174-.278.179-.084.352-.202.518-.356.102-.102.214-.128.336-.076.134.057.201.15.201.278v2.486c0 .761-.27 1.412-.81 1.953-.541.54-1.192.81-1.953.81H2.764c-.761 0-1.412-.27-1.953-.81A2.662 2.662 0 0 1 0 12.653V4.668c0-.761.27-1.412.81-1.953.542-.54 1.193-.81 1.954-.81zM11.67.676c.166 0 .31.06.432.182l3.685 3.685a.59.59 0 0 1 .182.432.59.59 0 0 1-.182.432l-3.685 3.685a.571.571 0 0 1-.432.182.667.667 0 0 1-.24-.047.574.574 0 0 1-.374-.567V6.818H9.52c-2.066 0-3.468.419-4.203 1.257-.762.876-.999 2.39-.71 4.54.019.146-.045.255-.193.325a.52.52 0 0 1-.115.02.3.3 0 0 1-.25-.125 7.994 7.994 0 0 1-.2-.298c-.071-.109-.197-.328-.38-.657-.182-.33-.34-.648-.475-.955a7.639 7.639 0 0 1-.37-1.094 4.594 4.594 0 0 1-.167-1.17c0-.314.01-.605.033-.874a6.62 6.62 0 0 1 .135-.864 4.52 4.52 0 0 1 .268-.844c.112-.256.263-.517.451-.782.19-.266.408-.502.658-.71a5.11 5.11 0 0 1 .907-.59 6.23 6.23 0 0 1 1.195-.466c.441-.125.951-.222 1.53-.293.58-.07 1.208-.105 1.886-.105h1.536V1.29c0-.269.124-.457.374-.566a.669.669 0 0 1 .24-.048z"/>
</svg>
