<svg xmlns="http://www.w3.org/2000/svg" width="20" height="20" viewBox="0 0 20 20">
    <g fill="none" fill-rule="evenodd">
        <path fill="#F2F5F7" d="M-24-431h1440v1905H-24z"/>
        <path fill="#FFF" d="M-24-363h240v2972H-24z"/>
        <path fill="#FFF" d="M-24-363h240v2972H-24z"/>
        <path d="M-24-14h208c13.255 0 24 10.745 24 24s-10.745 24-24 24H-24v-48z"/>
        <path fill="#646970" d="M18.187 3.125C14.775 3.125 12.16 2.15 9.95 0 7.74 2.15 5.124 3.125 1.712 3.125 1.712 8.723.554 16.743 9.949 20c9.397-3.257 8.238-11.277 8.238-16.875zm-8.92 9.852l-2.744-2.745L7.75 9.003l1.516 1.516 2.88-2.88 1.23 1.228-4.11 4.11z"/>
    </g>
</svg>
