<svg xmlns="http://www.w3.org/2000/svg" width="16" height="16" viewBox="0 0 16 16">
    <path fill="#354AE7" fill-rule="evenodd" d="M5.406 2.333a1.31 1.31 0 0 1 1.251.922l2.695 8.69a1.31 1.31 0 1 1-2.505.766l-.593-1.97H3.016l-.55 1.983a1.256 1.256 0 1 1-2.41-.703l2.676-8.76a1.31 1.31 0 0 1 1.253-.928zm7.601 4.289c2.24 0 2.956 1.319 2.956 2.899v2.336c0 .408.01.805.036 1.136a.463.463 0 0 1-.463.499h-.974a.464.464 0 0 1-.456-.38l-.054-.294h-.04c-.441.536-1.127.825-1.924.825-1.361 0-2.172-.989-2.172-2.061 0-1.745 1.567-2.583 3.944-2.57v-.096c0-.357-.192-.866-1.223-.866-.407 0-.828.082-1.195.206a.684.684 0 0 1-.878-.46l-.007-.023a.674.674 0 0 1 .423-.82 6.087 6.087 0 0 1 2.027-.331zm.921 3.696c-1.099-.014-1.951.247-1.951 1.058 0 .536.358.797.824.797a1.14 1.14 0 0 0 1.086-.77c.028-.11.041-.234.041-.357zm-9.32-6.072h-.031c-.169.672-.337 1.527-.522 2.182l-.67 2.4h2.5l-.705-2.4c-.2-.671-.403-1.51-.571-2.182z"/>
</svg>
