<svg xmlns="http://www.w3.org/2000/svg" width="16" height="16"><path fill="#6A7077" fill-rule="evenodd" d="M13.05 3.891l-.537 11.318a.804.804 0 01-.804.77H4.202a.804.804 0 01-.804-.77L2.862 3.891H13.05zm-2.547 2.485h-.522a.327.327 0 00-.327.326v6.467c0 .18.146.326.327.326h.522c.18 0 .327-.146.327-.326V6.702a.327.327 0 00-.327-.326zm-2.286 0h-.523a.327.327 0 00-.326.326v6.467c0 .18.146.326.326.326h.523c.18 0 .327-.146.327-.326V6.702a.327.327 0 00-.327-.326zm-2.286 0h-.523a.327.327 0 00-.326.326v6.467c0 .18.146.326.326.326h.523c.18 0 .326-.146.326-.326V6.702a.327.327 0 00-.326-.326zM9.774 0c.093 0 .169.075.169.168v.655h3.463c.279 0 .505.226.505.505v1.585H2V1.328c0-.279.226-.505.504-.505H5.97V.168c0-.093.075-.168.168-.168z"/></svg>