<svg xmlns="http://www.w3.org/2000/svg" width="20" height="20" viewBox="0 0 20 20">
    <path fill="#646970" fill-rule="evenodd" d="M11.94 4.61a3.595 3.595 0 0 1 1.673 2.671c.373.175.787.275 1.226.275a2.902 2.902 0 1 0-2.9-2.946zm-1.901 5.942a2.902 2.902 0 1 0 0-5.804 2.902 2.902 0 0 0 0 5.804zm1.23.197H8.807a3.72 3.72 0 0 0-3.715 3.716v3.011l.008.047.207.065c1.955.611 3.653.815 5.052.815 2.73 0 4.313-.779 4.41-.828l.194-.098h.021v-3.012a3.719 3.719 0 0 0-3.715-3.716zm4.801-2.995h-2.443a3.576 3.576 0 0 1-1.104 2.49 4.415 4.415 0 0 1 3.154 4.225v.928c2.412-.088 3.802-.772 3.894-.818l.193-.098h.021v-3.012a3.72 3.72 0 0 0-3.715-3.715zM4.947 7.556c.568 0 1.096-.165 1.543-.448a3.591 3.591 0 0 1 1.35-2.29c.003-.054.008-.108.008-.163a2.902 2.902 0 1 0-2.901 2.901zm2.606 2.689A3.578 3.578 0 0 1 6.45 7.768c-.09-.007-.18-.014-.273-.014H3.715A3.72 3.72 0 0 0 0 11.469v3.011l.008.047.207.065a17.42 17.42 0 0 0 4.184.787v-.91a4.416 4.416 0 0 1 3.154-4.224z"/>
</svg>
